<?xml version="1.0" encoding="utf-8"?>
<!-- Generator: Adobe Illustrator 23.0.2, SVG Export Plug-In . SVG Version: 6.00 Build 0)  -->
<svg version="1.1" id="Layer_2" xmlns="http://www.w3.org/2000/svg" xmlns:xlink="http://www.w3.org/1999/xlink" x="0px" y="0px"
	 viewBox="0 0 560 288" style="enable-background:new 0 0 560 288;" xml:space="preserve">
<style type="text/css">
	.st0{fill:#5E5E5E;}
	.st1{fill:none;stroke:#5E5E5E;stroke-width:5;stroke-miterlimit:10;}
</style>
<g>
	<path class="st0" d="M53.57,105.79h-8.83c-3.92,0-7.12-3.21-7.12-7.12v-6.18c0-3.92,3.21-7.12,7.12-7.12h8.83
		c3.92,0,7.12,3.21,7.12,7.12v6.18C60.69,102.58,57.49,105.79,53.57,105.79z"/>
	<line class="st1" x1="49.15" y1="85.37" x2="49.15" y2="175.27"/>
	<path class="st0" d="M49.15,209.87L49.15,209.87c-6.35,0-11.54-5.19-11.54-11.54v-30.52c0-6.35,5.19-11.54,11.54-11.54h0
		c6.35,0,11.54,5.19,11.54,11.54v30.52C60.69,204.67,55.5,209.87,49.15,209.87z"/>
</g>
<g>
	<path class="st0" d="M62.12,209.87h8.83c3.92,0,7.12,3.21,7.12,7.12v6.18c0,3.92-3.21,7.12-7.12,7.12h-8.83
		c-3.92,0-7.12-3.21-7.12-7.12v-6.18C55,213.07,58.21,209.87,62.12,209.87z"/>
	<line class="st1" x1="66.54" y1="230.29" x2="66.54" y2="140.38"/>
	<path class="st0" d="M66.54,105.79L66.54,105.79c6.35,0,11.54,5.19,11.54,11.54v30.52c0,6.35-5.19,11.54-11.54,11.54h0
		c-6.35,0-11.54-5.19-11.54-11.54v-30.52C55,110.98,60.19,105.79,66.54,105.79z"/>
</g>
<g>
	<path class="st0" d="M89.36,105.79h-8.83c-3.92,0-7.12-3.21-7.12-7.12v-6.18c0-3.92,3.21-7.12,7.12-7.12h8.83
		c3.92,0,7.12,3.21,7.12,7.12v6.18C96.48,102.58,93.28,105.79,89.36,105.79z"/>
	<line class="st1" x1="84.94" y1="85.37" x2="84.94" y2="175.27"/>
	<path class="st0" d="M84.94,209.87L84.94,209.87c-6.35,0-11.54-5.19-11.54-11.54v-30.52c0-6.35,5.19-11.54,11.54-11.54h0
		c6.35,0,11.54,5.19,11.54,11.54v30.52C96.48,204.67,91.29,209.87,84.94,209.87z"/>
</g>
<g>
	<path class="st0" d="M97.91,209.87h8.83c3.92,0,7.12,3.21,7.12,7.12v6.18c0,3.92-3.21,7.12-7.12,7.12h-8.83
		c-3.92,0-7.12-3.21-7.12-7.12v-6.18C90.79,213.07,93.99,209.87,97.91,209.87z"/>
	<line class="st1" x1="102.33" y1="230.29" x2="102.33" y2="140.38"/>
	<path class="st0" d="M102.33,105.79L102.33,105.79c6.35,0,11.54,5.19,11.54,11.54v30.52c0,6.35-5.19,11.54-11.54,11.54h0
		c-6.35,0-11.54-5.19-11.54-11.54v-30.52C90.79,110.98,95.98,105.79,102.33,105.79z"/>
</g>
<g>
	<path class="st0" d="M125.15,104.23h-8.83c-3.92,0-7.12-3.21-7.12-7.12v-6.18c0-3.92,3.21-7.12,7.12-7.12h8.83
		c3.92,0,7.12,3.21,7.12,7.12v6.18C132.27,101.03,129.06,104.23,125.15,104.23z"/>
	<line class="st1" x1="120.73" y1="83.81" x2="120.73" y2="173.71"/>
	<path class="st0" d="M120.73,208.31L120.73,208.31c-6.35,0-11.54-5.19-11.54-11.54v-30.52c0-6.35,5.19-11.54,11.54-11.54h0
		c6.35,0,11.54,5.19,11.54,11.54v30.52C132.27,203.12,127.08,208.31,120.73,208.31z"/>
</g>
<g>
	<path class="st0" d="M133.7,208.31h8.83c3.92,0,7.12,3.21,7.12,7.12v6.18c0,3.92-3.21,7.12-7.12,7.12h-8.83
		c-3.92,0-7.12-3.21-7.12-7.12v-6.18C126.58,211.51,129.78,208.31,133.7,208.31z"/>
	<line class="st1" x1="138.12" y1="228.73" x2="138.12" y2="138.83"/>
	<path class="st0" d="M138.12,104.23L138.12,104.23c6.35,0,11.54,5.19,11.54,11.54v30.52c0,6.35-5.19,11.54-11.54,11.54h0
		c-6.35,0-11.54-5.19-11.54-11.54v-30.52C126.58,109.42,131.77,104.23,138.12,104.23z"/>
</g>
<g>
	<path class="st0" d="M160.94,104.23h-8.83c-3.92,0-7.12-3.21-7.12-7.12v-6.18c0-3.92,3.21-7.12,7.12-7.12h8.83
		c3.92,0,7.12,3.21,7.12,7.12v6.18C168.06,101.03,164.85,104.23,160.94,104.23z"/>
	<line class="st1" x1="156.52" y1="83.81" x2="156.52" y2="173.71"/>
	<path class="st0" d="M156.52,208.31L156.52,208.31c-6.35,0-11.54-5.19-11.54-11.54v-30.52c0-6.35,5.19-11.54,11.54-11.54h0
		c6.35,0,11.54,5.19,11.54,11.54v30.52C168.06,203.12,162.87,208.31,156.52,208.31z"/>
</g>
<g>
	<path class="st0" d="M169.49,208.31h8.83c3.92,0,7.12,3.21,7.12,7.12v6.18c0,3.92-3.21,7.12-7.12,7.12h-8.83
		c-3.92,0-7.12-3.21-7.12-7.12v-6.18C162.37,211.51,165.57,208.31,169.49,208.31z"/>
	<line class="st1" x1="173.9" y1="228.73" x2="173.9" y2="138.83"/>
	<path class="st0" d="M173.9,104.23L173.9,104.23c6.35,0,11.54,5.19,11.54,11.54v30.52c0,6.35-5.19,11.54-11.54,11.54h0
		c-6.35,0-11.54-5.19-11.54-11.54v-30.52C162.37,109.42,167.56,104.23,173.9,104.23z"/>
</g>
</svg>
